<mxfile host="app.diagrams.net" agent="Mozilla/5.0 (Windows NT 10.0; Win64; x64) AppleWebKit/537.36 (KHTML, like Gecko) Chrome/131.0.0.0 Safari/537.36 Edg/131.0.0.0" version="24.8.3">
  <diagram name="Sivu-1" id="ksT3vZuKFKtdArUZGi40">
    <mxGraphModel dx="1472" dy="1104" grid="1" gridSize="10" guides="1" tooltips="1" connect="1" arrows="1" fold="1" page="1" pageScale="1" pageWidth="827" pageHeight="1169" math="0" shadow="0">
      <root>
        <mxCell id="0" />
        <mxCell id="1" parent="0" />
        <mxCell id="jF4bNvknbo036Lkr9Hgt-3" value="" style="edgeStyle=orthogonalEdgeStyle;rounded=0;orthogonalLoop=1;jettySize=auto;html=1;" edge="1" parent="1" source="jF4bNvknbo036Lkr9Hgt-1" target="jF4bNvknbo036Lkr9Hgt-2">
          <mxGeometry relative="1" as="geometry" />
        </mxCell>
        <mxCell id="jF4bNvknbo036Lkr9Hgt-1" value="Aloitus" style="ellipse;whiteSpace=wrap;html=1;" vertex="1" parent="1">
          <mxGeometry x="354" y="40" width="120" height="80" as="geometry" />
        </mxCell>
        <mxCell id="jF4bNvknbo036Lkr9Hgt-5" value="" style="edgeStyle=orthogonalEdgeStyle;rounded=0;orthogonalLoop=1;jettySize=auto;html=1;" edge="1" parent="1" source="jF4bNvknbo036Lkr9Hgt-2" target="jF4bNvknbo036Lkr9Hgt-4">
          <mxGeometry relative="1" as="geometry" />
        </mxCell>
        <mxCell id="jF4bNvknbo036Lkr9Hgt-2" value="Valitse vastaus&lt;div&gt;kysymyksiin&amp;nbsp;&lt;div&gt;1, 2, 3, 4 ja 5&lt;/div&gt;&lt;/div&gt;" style="shape=parallelogram;perimeter=parallelogramPerimeter;whiteSpace=wrap;html=1;fixedSize=1;" vertex="1" parent="1">
          <mxGeometry x="354" y="160" width="120" height="60" as="geometry" />
        </mxCell>
        <mxCell id="jF4bNvknbo036Lkr9Hgt-7" value="" style="edgeStyle=orthogonalEdgeStyle;rounded=0;orthogonalLoop=1;jettySize=auto;html=1;" edge="1" parent="1" source="jF4bNvknbo036Lkr9Hgt-4" target="jF4bNvknbo036Lkr9Hgt-6">
          <mxGeometry relative="1" as="geometry" />
        </mxCell>
        <mxCell id="jF4bNvknbo036Lkr9Hgt-9" value="" style="edgeStyle=orthogonalEdgeStyle;rounded=0;orthogonalLoop=1;jettySize=auto;html=1;" edge="1" parent="1" source="jF4bNvknbo036Lkr9Hgt-4" target="jF4bNvknbo036Lkr9Hgt-8">
          <mxGeometry relative="1" as="geometry" />
        </mxCell>
        <mxCell id="jF4bNvknbo036Lkr9Hgt-4" value="if&amp;nbsp;&lt;div&gt;vastaus.&lt;/div&gt;&lt;div&gt;trim&lt;/div&gt;" style="rhombus;whiteSpace=wrap;html=1;" vertex="1" parent="1">
          <mxGeometry x="374" y="260" width="80" height="80" as="geometry" />
        </mxCell>
        <mxCell id="jF4bNvknbo036Lkr9Hgt-6" value="Alert&amp;nbsp;&lt;span style=&quot;background-color: initial;&quot;&gt;Et&amp;nbsp;&lt;/span&gt;&lt;div&gt;&lt;span style=&quot;background-color: initial;&quot;&gt;vastannut&amp;nbsp;&lt;/span&gt;&lt;span style=&quot;background-color: initial;&quot;&gt;kaikiin&amp;nbsp;&lt;/span&gt;&lt;div&gt;kysymyksiin&lt;/div&gt;&lt;/div&gt;" style="shape=parallelogram;perimeter=parallelogramPerimeter;whiteSpace=wrap;html=1;fixedSize=1;" vertex="1" parent="1">
          <mxGeometry x="210" y="270" width="120" height="60" as="geometry" />
        </mxCell>
        <mxCell id="jF4bNvknbo036Lkr9Hgt-13" value="" style="edgeStyle=orthogonalEdgeStyle;rounded=0;orthogonalLoop=1;jettySize=auto;html=1;" edge="1" parent="1" source="jF4bNvknbo036Lkr9Hgt-8" target="jF4bNvknbo036Lkr9Hgt-12">
          <mxGeometry relative="1" as="geometry" />
        </mxCell>
        <mxCell id="jF4bNvknbo036Lkr9Hgt-8" value="let&lt;br&gt;&lt;div&gt;vastausten&lt;/div&gt;&lt;div&gt;tarkistus&lt;/div&gt;" style="rhombus;whiteSpace=wrap;html=1;" vertex="1" parent="1">
          <mxGeometry x="374" y="380" width="80" height="80" as="geometry" />
        </mxCell>
        <mxCell id="jF4bNvknbo036Lkr9Hgt-10" value="False" style="text;html=1;align=center;verticalAlign=middle;whiteSpace=wrap;rounded=0;" vertex="1" parent="1">
          <mxGeometry x="330" y="260" width="60" height="30" as="geometry" />
        </mxCell>
        <mxCell id="jF4bNvknbo036Lkr9Hgt-11" value="True" style="text;html=1;align=center;verticalAlign=middle;whiteSpace=wrap;rounded=0;" vertex="1" parent="1">
          <mxGeometry x="350" y="340" width="60" height="30" as="geometry" />
        </mxCell>
        <mxCell id="jF4bNvknbo036Lkr9Hgt-15" value="" style="edgeStyle=orthogonalEdgeStyle;rounded=0;orthogonalLoop=1;jettySize=auto;html=1;" edge="1" parent="1" source="jF4bNvknbo036Lkr9Hgt-12" target="jF4bNvknbo036Lkr9Hgt-14">
          <mxGeometry relative="1" as="geometry" />
        </mxCell>
        <mxCell id="jF4bNvknbo036Lkr9Hgt-12" value="Oikeat vastaukset&lt;div&gt;1. B | 2. A | 3. D |&lt;/div&gt;&lt;div&gt;4. B | 5. D&lt;/div&gt;" style="shape=parallelogram;perimeter=parallelogramPerimeter;whiteSpace=wrap;html=1;fixedSize=1;" vertex="1" parent="1">
          <mxGeometry x="346" y="500" width="136" height="70" as="geometry" />
        </mxCell>
        <mxCell id="jF4bNvknbo036Lkr9Hgt-18" value="" style="edgeStyle=orthogonalEdgeStyle;rounded=0;orthogonalLoop=1;jettySize=auto;html=1;" edge="1" parent="1" source="jF4bNvknbo036Lkr9Hgt-14" target="jF4bNvknbo036Lkr9Hgt-17">
          <mxGeometry relative="1" as="geometry" />
        </mxCell>
        <mxCell id="jF4bNvknbo036Lkr9Hgt-14" value="Let Pisteet" style="shape=parallelogram;perimeter=parallelogramPerimeter;whiteSpace=wrap;html=1;fixedSize=1;" vertex="1" parent="1">
          <mxGeometry x="354" y="620" width="120" height="60" as="geometry" />
        </mxCell>
        <mxCell id="jF4bNvknbo036Lkr9Hgt-17" value="Lopetus" style="ellipse;whiteSpace=wrap;html=1;" vertex="1" parent="1">
          <mxGeometry x="354" y="720" width="120" height="80" as="geometry" />
        </mxCell>
      </root>
    </mxGraphModel>
  </diagram>
</mxfile>
